<?xml version="1.0" standalone="no"?>
<!DOCTYPE svg PUBLIC "-//W3C//DTD SVG 20010904//EN"
 "http://www.w3.org/TR/2001/REC-SVG-20010904/DTD/svg10.dtd">
<svg version="1.0" xmlns="http://www.w3.org/2000/svg"
 width="1024.000000pt" height="1024.000000pt" viewBox="0 0 1024.000000 1024.000000"
 preserveAspectRatio="xMidYMid meet">
<metadata>
Created by potrace 1.14, written by Peter Selinger 2001-2017
</metadata>
<g transform="translate(0.000000,1024.000000) scale(0.100000,-0.100000)"
fill="#000000" stroke="none">
<path d="M5057 8954 c-1 -1 -67 -4 -147 -8 -80 -3 -155 -8 -165 -10 -11 -2
-47 -7 -80 -10 -33 -4 -73 -9 -88 -12 -16 -3 -38 -7 -50 -9 -62 -8 -166 -30
-292 -62 -77 -20 -152 -37 -167 -37 -14 -1 -24 -4 -22 -7 4 -6 -27 -18 -70
-26 -11 -2 -24 -7 -30 -12 -6 -4 -47 -20 -91 -35 -143 -49 -373 -156 -531
-247 -49 -29 -98 -57 -109 -63 -30 -16 -204 -134 -250 -169 -86 -66 -180 -142
-183 -149 -2 -5 -7 -8 -11 -8 -17 0 -351 -325 -351 -342 0 -4 -4 -8 -8 -8 -5
0 -21 -18 -38 -39 -16 -22 -32 -37 -36 -34 -5 2 -8 0 -8 -6 0 -6 -29 -48 -65
-93 -36 -46 -69 -87 -73 -93 -38 -48 -142 -205 -142 -214 0 -6 -4 -11 -9 -11
-5 0 -13 -9 -16 -20 -3 -11 -12 -26 -18 -33 -13 -14 -27 -38 -94 -167 -25 -47
-50 -94 -56 -105 -6 -11 -12 -22 -12 -25 -1 -3 -17 -39 -37 -80 -55 -118 -159
-393 -173 -460 -1 -3 -8 -30 -18 -60 -21 -71 -75 -314 -82 -370 -3 -23 -7 -46
-9 -49 -2 -3 -7 -37 -11 -76 -4 -38 -9 -73 -11 -77 -9 -13 -18 -236 -18 -423
-1 -200 8 -341 29 -485 10 -63 25 -154 30 -180 3 -14 8 -38 11 -55 3 -16 9
-47 13 -67 l9 -37 -77 -45 c-92 -54 -177 -135 -241 -230 -42 -63 -83 -132 -85
-146 0 -3 -7 -22 -14 -44 -31 -89 -40 -154 -36 -261 2 -60 6 -121 10 -135 3
-14 7 -32 9 -40 2 -8 -14 -49 -34 -90 -49 -99 -57 -122 -74 -205 -14 -65 -16
-274 -4 -315 3 -8 11 -36 18 -63 7 -26 16 -49 20 -52 4 -3 -1 -35 -12 -72 -10
-38 -19 -87 -19 -111 -1 -27 -4 -40 -11 -36 -7 5 -8 2 -3 -6 4 -7 9 -31 10
-54 10 -163 64 -308 165 -441 42 -55 177 -177 256 -230 49 -33 92 -64 96 -70
4 -5 8 -6 8 -1 0 5 8 3 17 -5 20 -17 222 -116 295 -145 25 -10 44 -23 41 -28
-4 -5 -1 -6 5 -2 7 4 26 1 44 -7 18 -8 60 -25 93 -37 33 -12 69 -26 80 -30 16
-7 75 -27 223 -75 7 -3 14 -5 17 -5 3 0 22 -6 42 -14 21 -8 61 -20 88 -27 28
-7 53 -17 57 -23 5 -7 8 -7 8 2 0 9 5 10 19 3 17 -10 92 -30 136 -36 11 -2 65
-13 120 -24 55 -12 116 -24 135 -26 19 -3 49 -7 65 -10 17 -2 53 -7 80 -11 28
-3 53 -11 57 -18 5 -8 8 -7 8 3 0 8 6 11 18 6 25 -10 165 -17 332 -17 188 0
322 11 448 38 40 9 81 13 90 9 9 -3 13 -3 9 2 -5 4 13 14 40 21 62 17 65 18
85 26 9 4 22 4 29 0 7 -4 9 -3 6 3 -3 5 11 15 31 22 38 14 183 82 192 91 3 3
24 18 48 33 43 28 49 33 135 106 26 22 53 38 60 36 79 -27 699 -26 837 1 17 3
33 -3 50 -19 68 -63 189 -148 262 -186 15 -8 25 -18 22 -22 -3 -5 2 -6 10 -3
8 3 35 -6 60 -20 26 -14 48 -25 51 -25 3 0 40 -11 83 -24 42 -14 91 -29 107
-33 17 -4 32 -8 35 -9 3 0 27 -4 53 -9 27 -4 59 -10 70 -12 12 -3 36 -6 52 -8
17 -2 55 -7 85 -11 61 -8 415 -9 470 -1 19 2 67 7 105 11 61 6 185 23 295 43
19 3 51 6 72 6 20 1 34 4 32 8 -2 3 15 9 38 13 24 3 57 10 73 15 38 12 84 21
110 23 11 1 22 4 25 8 4 4 111 36 180 54 35 8 294 101 398 141 62 25 118 41
125 38 7 -4 9 -3 4 1 -7 8 56 44 134 75 47 19 243 132 247 142 2 4 8 8 14 8
12 0 130 93 174 138 78 79 127 143 164 214 13 26 27 45 31 42 4 -2 5 5 2 16
-3 12 1 22 11 26 9 3 13 10 11 15 -3 4 1 32 9 61 35 125 36 270 1 385 -12 38
-11 51 2 91 9 26 19 49 22 52 8 7 11 47 12 185 1 93 -3 138 -20 200 -20 76
-75 203 -94 216 -5 3 -6 24 -3 45 4 21 10 62 14 89 4 28 7 66 7 85 0 19 4 38
10 42 7 5 7 8 -1 8 -5 0 -11 19 -12 43 -4 71 -40 185 -84 270 -12 23 -21 45
-20 50 1 4 -2 7 -8 7 -5 0 -16 13 -24 28 -39 75 -223 233 -315 272 -23 9 -30
17 -26 29 4 9 11 41 17 71 6 30 12 62 13 70 2 8 4 25 4 38 1 13 4 21 9 19 4
-3 7 8 6 25 0 16 3 51 7 77 38 240 45 709 14 906 -3 17 -7 50 -10 75 -3 25 -7
59 -9 76 -8 55 -46 248 -61 305 -8 30 -16 64 -18 75 -2 10 -7 26 -10 34 -4 8
-13 40 -21 70 -16 61 -72 227 -105 308 -12 30 -18 58 -15 64 4 6 3 8 -3 5 -9
-6 -57 93 -53 109 1 4 -2 10 -7 13 -11 8 -63 113 -63 128 0 6 -4 13 -8 15 -5
2 -24 32 -43 68 -18 36 -60 107 -91 158 -32 51 -58 97 -58 102 0 4 -3 10 -7
12 -12 5 -113 147 -113 158 0 6 -4 10 -8 10 -5 0 -22 19 -39 43 -17 23 -40 53
-52 67 -12 14 -38 45 -58 70 -56 68 -360 370 -423 420 -30 24 -62 50 -70 58
-25 23 -229 172 -235 172 -3 0 -11 5 -18 11 -15 12 -147 99 -152 99 -15 0
-113 69 -107 75 4 5 1 5 -5 1 -12 -7 -131 50 -145 69 -4 6 -8 7 -8 3 0 -4 -26
6 -57 21 -66 33 -199 91 -207 91 -2 0 -17 5 -33 12 -15 6 -30 12 -33 13 -3 1
-12 4 -20 8 -8 3 -51 18 -95 32 -44 15 -87 30 -95 33 -8 3 -19 6 -25 8 -5 1
-37 10 -70 19 -33 9 -71 18 -85 21 -14 3 -38 9 -55 14 -16 5 -59 14 -95 21
-36 6 -69 12 -75 13 -29 7 -84 17 -115 21 -19 2 -51 6 -70 9 -122 18 -529 40
-543 30z"/>
</g>
</svg>
